<?xml version="1.0" encoding="UTF-8" ?>
<!DOCTYPE svg PUBLIC "-//W3C//DTD SVG 1.1//EN" "http://www.w3.org/Graphics/SVG/1.1/DTD/svg11.dtd">
<svg width="310pt" height="117pt" viewBox="0 0 310 117" version="1.1" xmlns="http://www.w3.org/2000/svg">
<path fill="#ffffff" d=" M 0.00 0.00 L 310.00 0.00 L 310.00 117.00 L 0.00 117.00 L 0.00 0.00 Z" />
<path fill="#000000" d=" M 37.54 53.00 C 39.02 53.00 40.51 53.00 42.00 53.00 C 42.00 68.67 42.00 84.34 42.00 100.01 C 40.50 100.00 39.00 99.99 37.50 99.99 C 37.53 98.15 37.57 96.32 37.64 94.48 C 34.43 100.12 26.66 102.29 21.06 98.93 C 12.08 94.24 11.85 79.50 20.50 74.33 C 26.16 70.66 34.27 72.55 37.63 78.44 C 37.43 69.97 37.58 61.48 37.54 53.00 Z" />
<path fill="#fc1922" d=" M 71.03 61.09 C 75.93 55.41 83.67 52.52 91.11 53.27 C 100.73 53.88 109.22 61.15 111.87 70.34 C 113.79 64.44 117.70 59.15 123.20 56.16 C 131.81 51.28 143.53 52.36 150.83 59.16 C 154.21 62.05 156.47 66.00 157.91 70.17 C 159.87 64.37 163.72 59.16 169.15 56.19 C 177.14 51.65 187.86 52.19 195.19 57.81 C 199.62 60.98 202.60 65.79 204.13 70.96 C 206.69 60.83 216.41 52.98 226.93 53.20 C 237.86 52.66 248.47 60.88 250.48 71.67 C 252.33 61.61 261.76 53.69 271.92 53.25 C 281.79 52.27 291.75 58.34 295.59 67.44 C 298.82 74.79 298.05 83.79 293.47 90.42 C 288.85 97.46 280.27 101.57 271.89 100.84 C 261.75 100.25 252.15 92.38 250.53 82.19 C 249.21 89.34 244.12 95.56 237.57 98.60 C 229.72 102.41 219.79 101.45 212.87 96.11 C 208.52 92.95 205.56 88.18 204.14 83.04 C 202.48 88.68 199.05 93.91 194.01 97.07 C 187.16 101.59 177.94 102.15 170.57 98.56 C 164.45 95.78 159.97 90.15 157.91 83.82 C 155.17 93.02 146.69 100.20 137.03 100.82 C 125.92 102.04 114.91 94.38 111.88 83.67 C 110.07 89.52 106.13 94.74 100.77 97.76 C 94.26 101.58 85.94 101.89 79.07 98.88 C 72.41 95.84 67.19 89.67 65.59 82.50 C 63.82 75.04 65.82 66.76 71.03 61.09 Z" />
<path fill="#ffffff" d=" M 218.41 71.69 C 219.41 66.09 222.32 60.90 227.33 57.97 C 232.32 60.92 235.61 66.09 236.14 71.87 C 240.82 75.17 243.50 80.57 243.69 86.26 C 238.57 89.22 232.58 88.82 227.12 87.19 C 221.92 89.07 216.21 88.93 211.21 86.48 C 210.76 80.53 214.16 75.46 218.41 71.69 Z" />
<path fill="#ffffff" d=" M 134.33 61.33 C 136.82 59.98 140.22 62.20 139.96 65.02 C 140.01 67.64 136.83 69.63 134.50 68.46 C 131.49 67.44 131.38 62.51 134.33 61.33 Z" />
<path fill="#ffffff" d=" M 171.58 63.27 C 176.49 60.47 182.67 59.51 187.87 62.10 C 191.98 63.84 194.71 67.55 196.56 71.46 C 197.29 72.50 199.04 73.48 198.30 74.98 C 196.86 79.23 196.68 84.13 193.39 87.52 C 187.81 94.47 176.41 95.22 169.96 89.08 C 165.19 84.80 163.20 77.52 165.59 71.50 C 166.59 69.10 167.35 66.62 168.18 64.16 C 169.18 63.50 170.45 63.53 171.58 63.27 Z" />
<path fill="#fc1922" d=" M 220.83 70.49 C 221.77 66.47 224.10 63.00 227.29 60.42 C 230.65 62.89 232.90 66.46 233.96 70.48 C 229.68 68.97 225.11 68.97 220.83 70.49 Z" />
<path fill="#ffffff" d=" M 271.01 63.10 C 272.10 60.82 275.84 61.09 276.50 63.55 C 277.25 65.19 275.51 66.56 274.82 67.88 C 274.79 69.25 274.76 70.62 274.73 71.99 C 275.17 72.22 276.05 72.68 276.49 72.91 C 277.53 71.86 278.55 70.80 279.57 69.73 C 279.95 68.06 279.77 65.33 282.12 65.24 C 284.27 64.73 286.38 66.92 285.51 69.03 C 285.14 71.18 282.63 70.85 281.04 71.12 C 279.95 72.54 277.29 73.67 278.30 75.79 C 279.88 76.02 281.48 75.97 283.07 76.03 C 284.28 74.95 285.92 73.13 287.66 74.36 C 289.80 75.37 289.87 78.74 287.66 79.70 C 285.86 80.81 284.24 79.02 282.98 77.96 C 281.33 78.37 278.08 77.10 277.96 79.62 C 278.88 80.80 279.96 81.84 281.03 82.88 C 282.99 82.83 286.02 83.35 285.64 86.00 C 285.91 88.55 282.54 89.64 280.82 88.22 C 279.51 87.38 279.97 85.59 279.63 84.30 C 278.60 83.23 277.57 82.16 276.53 81.11 C 276.08 81.33 275.18 81.77 274.73 81.99 C 274.73 83.41 274.77 84.83 274.83 86.25 C 275.59 87.56 277.16 88.83 276.50 90.51 C 275.95 93.56 270.52 93.05 270.75 89.90 C 270.41 88.35 272.04 87.43 272.74 86.29 C 272.46 84.49 273.76 81.26 270.91 81.36 C 268.47 82.75 267.62 85.39 266.81 87.88 C 265.04 90.28 260.66 87.90 261.82 85.08 C 262.23 82.76 264.94 83.07 266.69 82.83 C 267.94 81.43 269.59 80.05 269.23 77.95 C 267.64 77.98 266.05 78.01 264.46 78.05 C 263.15 79.00 261.88 80.62 260.05 79.89 C 257.62 78.89 257.58 75.03 260.14 74.18 C 261.94 73.38 263.19 75.10 264.49 76.01 C 266.27 75.72 269.43 76.98 269.40 74.19 C 268.15 71.94 265.82 70.88 263.36 70.60 C 260.28 69.78 261.81 64.51 264.88 65.22 C 267.38 65.09 267.26 68.09 268.13 69.67 C 269.08 71.15 270.67 73.60 272.65 72.17 C 272.76 70.72 272.74 69.27 272.74 67.82 C 271.56 66.60 269.96 64.93 271.01 63.10 Z" />
<path fill="#ffffff" d=" M 80.35 63.28 C 82.30 61.78 84.42 63.44 85.69 64.95 C 87.60 64.98 89.52 65.00 91.44 64.97 C 92.75 64.06 94.05 61.94 95.92 62.85 C 98.05 63.19 97.84 65.55 97.90 67.16 C 97.71 69.49 99.37 71.32 100.43 73.23 C 102.02 74.10 104.68 74.68 104.02 77.07 C 104.31 79.18 101.89 79.70 100.50 80.51 C 99.59 82.03 98.60 83.53 97.95 85.20 C 97.56 87.22 98.75 90.47 95.97 91.13 C 94.09 92.01 92.70 90.10 91.48 89.02 C 89.56 89.01 87.65 89.00 85.74 89.04 C 84.48 90.19 83.03 91.96 81.09 91.10 C 78.61 90.40 79.08 87.54 79.58 85.64 C 78.63 83.88 77.67 82.12 76.67 80.39 C 74.97 79.78 72.50 79.39 72.52 77.07 C 72.24 74.51 74.92 73.97 76.76 73.31 C 77.75 71.68 78.60 69.97 79.55 68.31 C 79.25 66.61 78.57 64.44 80.35 63.28 Z" />
<path fill="#fc1922" d=" M 172.98 65.00 C 176.25 63.05 180.20 61.88 183.98 62.94 C 188.79 63.91 192.56 67.63 194.52 72.01 C 194.22 72.77 193.61 74.28 193.31 75.03 C 194.07 75.91 194.80 76.82 195.51 77.74 C 194.64 81.56 193.24 85.54 190.00 88.00 C 184.80 92.43 176.42 92.33 171.45 87.59 C 166.10 83.09 165.08 74.77 168.97 69.01 C 171.14 68.59 172.58 67.18 172.98 65.00 Z" />
<path fill="#ffffff" d=" M 125.47 64.44 C 128.55 62.27 131.74 67.76 128.29 69.40 C 125.18 71.32 122.33 66.12 125.47 64.44 Z" />
<path fill="#ffffff" d=" M 142.58 66.39 C 145.13 63.48 149.78 67.27 147.29 70.31 C 144.91 73.42 139.90 69.40 142.58 66.39 Z" />
<path fill="#ffffff" d=" M 178.45 66.48 C 184.54 64.86 191.42 69.68 191.59 76.07 C 192.21 81.68 187.66 87.34 181.93 87.50 C 179.04 87.48 176.11 87.32 173.29 86.68 C 171.81 82.79 169.40 78.72 170.49 74.42 C 171.36 70.53 174.56 67.35 178.45 66.48 Z" />
<path fill="#fc1922" d=" M 85.69 67.07 C 87.71 67.01 89.74 67.00 91.76 66.98 C 92.18 67.44 93.02 68.38 93.45 68.85 C 94.00 68.91 95.12 69.04 95.68 69.10 C 96.59 70.81 97.59 72.47 98.50 74.18 C 97.93 75.98 97.89 77.82 98.59 79.59 C 97.68 81.26 96.72 82.90 95.73 84.53 C 94.21 85.14 92.79 85.96 91.49 86.95 C 89.56 87.00 87.64 86.98 85.71 86.95 C 84.40 85.95 82.96 85.15 81.45 84.51 C 80.46 82.81 79.44 81.14 78.53 79.40 C 78.69 77.67 78.62 75.94 78.65 74.21 C 79.54 72.61 80.46 71.03 81.41 69.46 C 82.96 68.90 84.41 68.12 85.69 67.07 Z" />
<path fill="#fc1922" d=" M 173.71 81.87 C 169.79 76.39 174.20 67.98 180.96 68.23 C 186.69 68.07 191.40 74.63 189.07 79.98 C 187.50 84.37 182.45 86.52 178.08 85.23 C 177.26 83.34 175.86 82.02 173.71 81.87 Z" />
<path fill="#ffffff" d=" M 120.84 70.26 C 121.57 70.37 123.03 70.60 123.75 70.72 L 123.04 72.68 C 125.73 71.76 129.33 69.63 131.73 72.29 C 134.64 74.83 132.80 80.22 128.92 80.43 C 125.22 81.00 122.45 76.94 124.31 73.67 C 123.46 73.14 122.47 72.91 121.48 72.86 C 121.32 72.21 121.00 70.91 120.84 70.26 Z" />
<path fill="#ffffff" d=" M 135.58 71.55 C 137.52 68.72 142.18 71.42 140.52 74.51 C 138.91 78.07 133.33 74.84 135.58 71.55 Z" />
<path fill="#ffffff" d=" M 148.00 72.35 C 149.51 71.55 150.16 72.00 149.94 73.71 C 148.42 74.50 147.77 74.05 148.00 72.35 Z" />
<path fill="#ffffff" d=" M 179.27 72.30 C 182.59 70.86 186.63 74.28 185.73 77.82 C 185.38 81.60 180.01 83.18 177.53 80.45 C 174.89 78.16 175.89 73.30 179.27 72.30 Z" />
<path fill="#fc1922" d=" M 220.71 73.14 C 224.93 71.36 229.75 71.24 233.93 73.24 C 233.06 77.40 231.24 82.22 227.13 83.98 C 223.38 81.62 221.53 77.34 220.71 73.14 Z" />
<path fill="#ffffff" d=" M 86.42 73.46 C 89.04 71.44 93.44 73.65 93.04 77.03 C 93.37 80.02 89.75 82.26 87.13 80.94 C 84.13 79.79 83.67 75.14 86.42 73.46 Z" />
<path fill="#fc1922" d=" M 272.15 74.16 C 275.40 71.99 279.04 77.47 275.65 79.61 C 272.20 82.65 267.96 76.02 272.15 74.16 Z" />
<path fill="#ffffff" d=" M 142.34 75.44 C 145.27 74.01 149.43 75.63 149.90 79.06 C 151.12 83.25 145.95 87.17 142.23 84.89 C 138.56 83.10 138.53 77.10 142.34 75.44 Z" />
<path fill="#fc1922" d=" M 213.08 85.02 C 213.67 80.96 215.69 77.39 218.47 74.43 C 219.43 78.83 221.81 82.69 225.03 85.78 C 221.05 86.90 216.88 86.65 213.08 85.02 Z" />
<path fill="#ffffff" d=" M 225.32 75.21 C 227.50 72.81 231.37 75.81 229.55 78.58 C 227.52 81.57 222.80 77.89 225.32 75.21 Z" />
<path fill="#fc1922" d=" M 236.24 74.65 C 239.15 77.44 241.08 81.06 241.51 85.10 C 237.73 86.62 233.63 86.92 229.70 85.77 C 232.92 82.76 235.14 78.91 236.24 74.65 Z" />
<path fill="#ffffff" d=" M 24.16 77.27 C 29.88 74.47 37.20 78.71 37.63 85.04 C 38.84 91.48 32.77 98.09 26.16 96.39 C 17.29 94.85 16.19 80.78 24.16 77.27 Z" />
<path fill="#ffffff" d=" M 120.10 81.02 C 120.67 79.68 121.49 78.59 123.15 78.71 C 123.09 79.43 122.99 80.88 122.93 81.60 C 122.23 81.45 120.81 81.16 120.10 81.02 Z" />
<path fill="#ffffff" d=" M 134.02 79.49 C 134.77 79.49 136.27 79.49 137.02 79.48 C 136.90 80.49 136.79 81.50 136.69 82.52 C 135.79 82.38 134.89 82.25 133.99 82.12 C 134.00 81.46 134.01 80.15 134.02 79.49 Z" />
<path fill="#ffffff" d=" M 124.35 82.52 C 126.55 80.75 130.13 83.26 129.22 85.95 C 128.80 88.38 125.26 89.12 123.80 87.22 C 122.42 85.92 122.80 83.50 124.35 82.52 Z" />
<path fill="#ffffff" d=" M 130.74 89.03 C 129.80 85.72 134.13 83.31 136.61 85.48 C 138.60 86.80 137.64 89.35 137.27 91.23 C 134.96 92.27 131.04 92.27 130.74 89.03 Z" />
<path fill="#ffffff" d=" M 140.09 87.37 C 140.75 87.41 142.06 87.49 142.72 87.52 C 142.68 88.09 142.61 89.23 142.57 89.80 C 141.99 89.85 140.84 89.96 140.26 90.01 C 140.22 89.35 140.13 88.03 140.09 87.37 Z" />
<path fill="#000000" d=" M 51.23 94.12 C 52.91 92.82 56.06 93.28 56.71 95.50 C 58.10 98.17 54.88 101.67 52.14 100.19 C 49.74 99.19 49.28 95.80 51.23 94.12 Z" />
</svg>
